<svg xmlns="http://www.w3.org/2000/svg" viewBox="0 0 1100 1200" width="1100" height="1200">
    <path d="M577.56,1107.69c-98.83,98.82-259.81,99.06-358.87,0L60.62,949.62a60.09,60.09,0,1,1,84.64-85.33l.34.35L303.67,1022.7c52,52,136.94,52,188.9,0s52-136.94,0-188.9L334.51,675.73a60.09,60.09,0,1,1,83.76-86.18l.87.86.35.34L577.56,748.82C676.62,847.88,676.38,1008.86,577.56,1107.69Zm270-633.24L689.49,316.38c-52-52-52-136.94,0-188.91a60.09,60.09,0,1,0-84.64-85.32h0l-.34.34c-98.83,98.82-98.83,260.05,0,358.87L762.58,559.43a60.1,60.1,0,0,0,85-85ZM751.89,189.88a60,60,0,0,0-.22,84.76c.08.07.15.15.22.22L910,432.93c52,52,52,136.94,0,188.9s-137,52-188.91,0L552.55,453.32c-98.83-98.82-260-98.82-358.87,0s-98.83,260.05,0,358.87L351.75,970.26a60.1,60.1,0,0,0,85-85l-158.09-158c-52-52-52-137,0-188.91s137-52,188.91,0l168.5,168.51c98.83,98.82,260,98.82,358.87,0s98.83-260,0-358.87L836.88,189.87a60.16,60.16,0,0,0-85,0Z" style="isolation:isolate" fill="#fbfbfb"/>
</svg>
